<svg width="59" height="70" viewBox="0 0 59 70" fill="none" xmlns="http://www.w3.org/2000/svg">
    <g filter="url(#filter0_d_6293_15142)">
        <path fill-rule="evenodd" clip-rule="evenodd" d="M34.0107 54.6361V61H24.9886V54.6361H18.67V45.697H41.3997V44.3502H33.219L42.7228 34.9338L50.9993 43.1343V54.6355H34.0107V54.6361ZM16.7085 44.351H8V43.1385V39.835V26.4683V24.8615V23.6491H16.7085H19.7731H51V24.8651L42.4475 33.3397H17.3115V34.6611H41.1132L31.3334 44.3516H19.029H16.7092L16.7085 44.351ZM34.0107 13.3639H50.9993V22.3024H8.07236V13.3639H24.9886V7H34.0107V13.3639ZM17.3108 45.6976V54.6369H8.07236V45.6976H17.3108Z" fill="#FF9E3F"/>
    </g>
    <defs>
        <filter id="filter0_d_6293_15142" x="0.4" y="0.4" width="58.2" height="69.2" filterUnits="userSpaceOnUse" color-interpolation-filters="sRGB">
            <feFlood flood-opacity="0" result="BackgroundImageFix"/>
            <feColorMatrix in="SourceAlpha" type="matrix" values="0 0 0 0 0 0 0 0 0 0 0 0 0 0 0 0 0 0 127 0" result="hardAlpha"/>
            <feOffset dy="1"/>
            <feGaussianBlur stdDeviation="3.8"/>
            <feComposite in2="hardAlpha" operator="out"/>
            <feColorMatrix type="matrix" values="0 0 0 0 0 0 0 0 0 0 0 0 0 0 0 0 0 0 0.25 0"/>
            <feBlend mode="normal" in2="BackgroundImageFix" result="effect1_dropShadow_6293_15142"/>
            <feBlend mode="normal" in="SourceGraphic" in2="effect1_dropShadow_6293_15142" result="shape"/>
        </filter>
    </defs>
</svg>